# Blender v2.73 (sub 0) OBJ File: ''
# www.blender.org
mtllib stozek.mtl
o Cone
v 0.001158 1.038154 -19.980999
v 0.001158 0.038153 0.019002
v 0.196248 1.018939 -19.980999
v 0.383841 0.962034 -19.980999
v 0.556728 0.869624 -19.980999
v 0.708265 0.745261 -19.980999
v 0.832627 0.593724 -19.980999
v 0.925037 0.420837 -19.980999
v 0.981943 0.233244 -19.980999
v 1.001158 0.038154 -19.980999
v 0.981943 -0.156936 -19.980999
v 0.925037 -0.344529 -19.980999
v 0.832627 -0.517416 -19.980999
v 0.708265 -0.668953 -19.980999
v 0.556728 -0.793315 -19.980999
v 0.383841 -0.885726 -19.980999
v 0.196248 -0.942631 -19.980999
v 0.001157 -0.961846 -19.980999
v -0.193933 -0.942631 -19.980999
v -0.381526 -0.885726 -19.980999
v -0.554413 -0.793315 -19.980999
v -0.705950 -0.668952 -19.980999
v -0.830312 -0.517416 -19.980999
v -0.922722 -0.344529 -19.980999
v -0.979628 -0.156935 -19.980999
v -0.998842 0.038155 -19.980999
v -0.979627 0.233245 -19.980999
v -0.922721 0.420839 -19.980999
v -0.830311 0.593725 -19.980999
v -0.705948 0.745262 -19.980999
v -0.554411 0.869625 -19.980999
v -0.381524 0.962034 -19.980999
v -0.193931 1.018939 -19.980999
vt 0.421899 0.095264
vt 0.000086 0.999914
vt 0.406075 0.087979
vt 0.390125 0.080972
vt 0.374054 0.074243
vt 0.437593 0.102823
vt 0.453152 0.110654
vt 0.468570 0.118755
vt 0.483844 0.127123
vt 0.498968 0.135756
vt 0.513938 0.144651
vt 0.528750 0.153805
vt 0.017533 0.000305
vt 0.000086 0.000086
vt 0.034973 0.000829
vt 0.052399 0.001656
vt 0.069807 0.002788
vt 0.087192 0.004223
vt 0.104548 0.005961
vt 0.121869 0.008002
vt 0.139152 0.010345
vt 0.156389 0.012988
vt 0.173577 0.015932
vt 0.190709 0.019175
vt 0.207782 0.022716
vt 0.224788 0.026555
vt 0.241724 0.030689
vt 0.258584 0.035118
vt 0.275363 0.039840
vt 0.292056 0.044854
vt 0.308658 0.050159
vt 0.325164 0.055751
vt 0.341568 0.061631
vt 0.357867 0.067795
vt 0.637439 0.014881
vt 0.661465 0.072885
vt 0.601721 0.132629
vt 0.528922 0.072885
vt 0.626585 0.007629
vt 0.588667 0.000086
vt 0.601721 0.000086
vt 0.614524 0.002633
vt 0.552948 0.014881
vt 0.575863 0.002633
vt 0.563802 0.007628
vt 0.536464 0.034966
vt 0.543717 0.024112
vt 0.528922 0.059830
vt 0.531469 0.047027
vt 0.536464 0.097749
vt 0.531469 0.085688
vt 0.552948 0.117834
vt 0.543717 0.108603
vt 0.588667 0.132629
vt 0.563802 0.125087
vt 0.575863 0.130083
vt 0.626585 0.125087
vt 0.614524 0.130083
vt 0.646670 0.108603
vt 0.637439 0.117834
vt 0.653923 0.097749
vt 0.658918 0.085688
vt 0.658918 0.047027
vt 0.661465 0.059830
vt 0.646670 0.024112
vt 0.653923 0.034966
vn -0.289900 0.955800 0.049700
vn 0.097900 0.994000 0.049700
vn -0.470800 0.880800 0.049700
vn -0.633600 0.772100 0.049700
vn -0.772100 0.633600 0.049700
vn -0.880800 0.470800 0.049700
vn -0.955800 0.289900 0.049700
vn -0.994000 0.097900 0.049700
vn -0.994000 -0.097900 0.049700
vn -0.955800 -0.289900 0.049700
vn -0.880800 -0.470800 0.049700
vn -0.772100 -0.633600 0.049700
vn -0.633600 -0.772100 0.049700
vn -0.470800 -0.880800 0.049700
vn -0.289900 -0.955800 0.049700
vn -0.097900 -0.994000 0.049700
vn 0.097900 -0.994000 0.049700
vn 0.289900 -0.955800 0.049700
vn 0.470800 -0.880800 0.049700
vn 0.633600 -0.772100 0.049700
vn 0.772100 -0.633600 0.049700
vn 0.880800 -0.470800 0.049700
vn 0.955800 -0.289900 0.049700
vn 0.994000 -0.097900 0.049700
vn 0.994000 0.097900 0.049700
vn 0.955800 0.289900 0.049700
vn 0.880800 0.470800 0.049700
vn 0.772100 0.633600 0.049700
vn 0.633600 0.772100 0.049700
vn 0.470800 0.880800 0.049700
vn -0.097900 0.994000 0.049700
vn 0.289900 0.955800 0.049700
vn 0.000000 0.000000 -1.000000
vn -0.000100 0.000000 -1.000000
vn 0.000100 0.000000 -1.000000
usemtl None
s off
f 32/1/1 2/2/1 33/3/1
f 1/4/2 2/2/2 3/5/2
f 31/6/3 2/2/3 32/1/3
f 30/7/4 2/2/4 31/6/4
f 29/8/5 2/2/5 30/7/5
f 28/9/6 2/2/6 29/8/6
f 27/10/7 2/2/7 28/9/7
f 26/11/8 2/2/8 27/10/8
f 25/12/9 2/2/9 26/11/9
f 24/13/10 2/2/10 25/14/10
f 23/15/11 2/2/11 24/13/11
f 22/16/12 2/2/12 23/15/12
f 21/17/13 2/2/13 22/16/13
f 20/18/14 2/2/14 21/17/14
f 19/19/15 2/2/15 20/18/15
f 18/20/16 2/2/16 19/19/16
f 17/21/17 2/2/17 18/20/17
f 16/22/18 2/2/18 17/21/18
f 15/23/19 2/2/19 16/22/19
f 14/24/20 2/2/20 15/23/20
f 13/25/21 2/2/21 14/24/21
f 12/26/22 2/2/22 13/25/22
f 11/27/23 2/2/23 12/26/23
f 10/28/24 2/2/24 11/27/24
f 9/29/25 2/2/25 10/28/25
f 8/30/26 2/2/26 9/29/26
f 7/31/27 2/2/27 8/30/27
f 6/32/28 2/2/28 7/31/28
f 5/33/29 2/2/29 6/32/29
f 4/34/30 2/2/30 5/33/30
f 33/3/31 2/2/31 1/4/31
f 3/5/32 2/2/32 4/34/32
f 1/35/33 7/36/33 14/37/33
f 22/38/33 33/39/33 1/35/33
f 30/40/33 31/41/33 32/42/33
f 27/43/33 29/44/33 30/40/33
f 29/44/33 27/43/33 28/45/33
f 30/40/33 25/46/33 26/47/33
f 25/46/34 23/48/34 24/49/34
f 20/50/35 21/51/35 22/38/35
f 18/52/33 19/53/33 20/50/33
f 15/54/33 17/55/33 18/52/33
f 17/55/33 15/54/33 16/56/33
f 12/57/33 13/58/33 14/37/33
f 10/59/34 11/60/34 12/57/34
f 7/36/33 9/61/33 10/59/33
f 9/61/33 7/36/33 8/62/33
f 1/35/33 5/63/33 6/64/33
f 5/63/33 3/65/33 4/66/33
f 30/40/33 32/42/33 33/39/33
f 26/47/33 27/43/33 30/40/33
f 22/38/33 23/48/33 25/46/33
f 18/52/33 20/50/33 22/38/33
f 14/37/33 15/54/33 18/52/33
f 10/59/33 12/57/33 14/37/33
f 14/37/33 7/36/33 10/59/33
f 1/35/33 3/65/33 5/63/33
f 22/38/33 25/46/33 33/39/33
f 30/40/33 33/39/33 25/46/33
f 1/35/33 14/37/33 18/52/33
f 1/35/33 6/64/33 7/36/33
f 18/52/33 22/38/33 1/35/33
